<?xml version="1.0" standalone="no"?><!DOCTYPE svg PUBLIC "-//W3C//DTD SVG 1.1//EN" "http://www.w3.org/Graphics/SVG/1.1/DTD/svg11.dtd"><svg class="icon" width="200px" height="200.00px" viewBox="0 0 1024 1024" version="1.1" xmlns="http://www.w3.org/2000/svg"><path fill="#2c2c2c" d="M928 0H96C43.2 0 0 43.2 0 96v832c0 52.8 43.2 96 96 96h832c52.8 0 96-43.2 96-96V96c0-52.8-43.2-96-96-96zM384 832H256V384h128v448z m-64-512c-35.392 0-64-28.608-64-64s28.608-64 64-64c35.392 0 64 28.608 64 64s-28.608 64-64 64z m512 512h-128v-256c0-35.392-28.608-64-64-64s-64 28.608-64 64v256h-128V384h128v79.392C602.4 427.2 642.784 384 688 384c79.616 0 144 71.616 144 160v288z" /></svg>