<?xml version="1.0" standalone="no"?><!DOCTYPE svg PUBLIC "-//W3C//DTD SVG 1.1//EN" "http://www.w3.org/Graphics/SVG/1.1/DTD/svg11.dtd"><svg class="icon" width="200px" height="200.00px" viewBox="0 0 1024 1024" version="1.1" xmlns="http://www.w3.org/2000/svg"><path d="M511.998 81.858c-237.556 0-430.14 192.586-430.14 430.148 0 237.546 192.584 430.134 430.14 430.134S942.14 749.552 942.14 512.006c0-237.562-192.586-430.148-430.142-430.148z" fill="#EDF3FC" /><path d="M511.998 2C230.784 2 2 230.786 2 512.006 2 793.212 230.784 1022 511.998 1022 793.214 1022 1022 793.212 1022 512.006 1022 230.786 793.214 2 511.998 2z m0 1003.656c-272.204 0-493.66-221.456-493.66-493.65 0-272.21 221.456-493.668 493.66-493.668s493.664 221.458 493.664 493.668c0 272.196-221.458 493.65-493.664 493.65z" fill="#EDF3FC" /><path d="M885.928 608.108a64.726 64.726 0 0 1-47.054-47.052l-0.992-3.958-0.992 3.958a64.724 64.724 0 0 1-47.054 47.052l-3.954 0.992 3.954 0.986a64.728 64.728 0 0 1 47.054 47.058l0.992 3.954 0.992-3.954a64.73 64.73 0 0 1 47.054-47.058l3.96-0.986-3.96-0.992z" fill="#330D84" /><path d="M422.758 226.888a67.138 67.138 0 0 1-48.796-48.796l-1.024-4.1-1.032 4.1a67.128 67.128 0 0 1-48.796 48.796l-4.1 1.042 4.1 1.034a67.1 67.1 0 0 1 48.796 48.78l1.032 4.106 1.024-4.106a67.116 67.116 0 0 1 48.796-48.78l4.102-1.034-4.102-1.042z" fill="#5D8EF9" /><path d="M395.68 776.676a43.392 43.392 0 0 1-31.53-31.524l-0.658-2.646-0.662 2.646a43.354 43.354 0 0 1-31.53 31.524l-2.636 0.666 2.636 0.668a43.33 43.33 0 0 1 31.53 31.518l0.662 2.646 0.658-2.646a43.368 43.368 0 0 1 31.53-31.518l2.648-0.668-2.648-0.666z" fill="#FFBE1B" /><path d="M512 233.752m-39 0a39 39 0 1 0 78 0 39 39 0 1 0-78 0Z" fill="#8AC9F9" /><path d="M512 781.506m-39 0a39 39 0 1 0 78 0 39 39 0 1 0-78 0Z" fill="#8AC9F9" /><path d="M238.122 507.628m-39 0a39 39 0 1 0 78 0 39 39 0 1 0-78 0Z" fill="#8AC9F9" /><path d="M512 272.752c-3.462 0-6.802-0.496-10-1.342v110.558h20v-110.558a39.002 39.002 0 0 1-10 1.342zM340.476 344.904a38.954 38.954 0 0 1-13.112 15.102l48.55 42.302a30.392 30.392 0 0 1 12.48-15.648l-47.918-41.756zM683.524 344.904l-47.918 41.752a30.414 30.414 0 0 1 12.48 15.652l48.55-42.302a38.94 38.94 0 0 1-13.112-15.102zM275.778 497.628c0.846 3.198 1.342 6.536 1.342 10 0 3.462-0.496 6.802-1.342 10h98.404v-20h-98.404zM648.086 612.948a30.408 30.408 0 0 1-12.476 15.654l47.914 41.75a38.94 38.94 0 0 1 13.114-15.1l-48.552-42.304zM748.222 497.628h-98.404v20h98.404a38.916 38.916 0 0 1-1.344-10c0.002-3.462 0.498-6.802 1.344-10zM375.914 612.948l-48.55 42.304a38.94 38.94 0 0 1 13.114 15.1l47.916-41.752a30.416 30.416 0 0 1-12.48-15.652zM502 633.294v110.554a39.002 39.002 0 0 1 10-1.342c3.462 0 6.802 0.496 10 1.342v-110.554h-20z" fill="#330D84" /><path d="M785.88 507.628m-39 0a39 39 0 1 0 78 0 39 39 0 1 0-78 0Z" fill="#8AC9F9" /><path d="M725.972 649.278c-21.14-4.132-41.626 9.648-45.762 30.786-4.132 21.138 9.648 41.628 30.79 45.76 21.136 4.134 41.628-9.646 45.762-30.786 4.132-21.14-9.648-41.624-30.79-45.76zM313 289.432c-21.136-4.138-41.628 9.648-45.762 30.788-4.132 21.14 9.648 41.626 30.79 45.76 21.14 4.136 41.626-9.646 45.76-30.786 4.134-21.144-9.648-41.628-30.788-45.762zM343.79 680.064c-4.136-21.138-24.622-34.92-45.762-30.786-21.14 4.136-34.922 24.62-30.79 45.762 4.134 21.138 24.626 34.92 45.762 30.786 21.14-4.134 34.922-24.622 30.79-45.762zM756.762 320.218c-4.134-21.138-24.626-34.926-45.762-30.788-21.14 4.134-34.922 24.62-30.788 45.762 4.134 21.138 24.62 34.922 45.76 30.786 21.142-4.134 34.922-24.618 30.79-45.76z" fill="#FFBE1B" /><path d="M619.444 381.968h-214.88c-16.782 0-30.382 13.6-30.382 30.368v190.574c0 16.78 13.602 30.38 30.382 30.38h214.88c16.776 0 30.376-13.602 30.376-30.38v-190.574c-0.002-16.768-13.602-30.368-30.376-30.368z" fill="#330D84" /><path d="M540.554 399.032a9.058 9.058 0 1 0 0 18.114 9.058 9.058 0 0 0 0-18.114zM577.324 399.032a9.058 9.058 0 1 0-0.004 18.116 9.058 9.058 0 0 0 0.004-18.116zM614.092 399.032a9.058 9.058 0 1 0 0 18.114 9.058 9.058 0 0 0 0-18.114z" fill="#FFFFFF" /><path d="M374.182 435.888v167.024c0 16.78 13.602 30.38 30.382 30.38h214.88c16.776 0 30.376-13.602 30.376-30.38v-167.024H374.182z" fill="#6857E5" /><path d="M579.706 556.51l-8.72-5.038a62.494 62.494 0 0 0 2.6-17.884c0-6.214-0.91-12.216-2.6-17.884l8.72-5.038a4.512 4.512 0 0 0 1.656-6.164l-10.006-17.332a4.518 4.518 0 0 0-6.17-1.652l-8.734 5.04a62.536 62.536 0 0 0-30.964-17.89V462.6a4.52 4.52 0 0 0-4.516-4.52H500.96a4.52 4.52 0 0 0-4.516 4.52v10.068a62.6 62.6 0 0 0-30.964 17.89l-8.736-5.04a4.516 4.516 0 0 0-6.168 1.652l-10.004 17.332a4.512 4.512 0 0 0 1.652 6.164l8.722 5.038a62.562 62.562 0 0 0-2.598 17.884c0 6.212 0.91 12.218 2.598 17.884l-8.718 5.038a4.512 4.512 0 0 0-1.656 6.166l10.004 17.334a4.522 4.522 0 0 0 6.168 1.652l8.736-5.044a62.548 62.548 0 0 0 30.964 17.89v10.07a4.52 4.52 0 0 0 4.516 4.52h20.012a4.52 4.52 0 0 0 4.516-4.52v-10.068a62.564 62.564 0 0 0 30.964-17.892l8.734 5.044a4.524 4.524 0 0 0 6.17-1.652l10.006-17.334a4.51 4.51 0 0 0-1.656-6.166z m-68.74 11.322c-18.91 0-34.244-15.332-34.244-34.244 0-18.914 15.334-34.244 34.244-34.244 18.914 0 34.246 15.33 34.246 34.244 0 18.912-15.332 34.244-34.246 34.244z" fill="#FFFFFF" /></svg>