<?xml version="1.0" standalone="no"?><!DOCTYPE svg PUBLIC "-//W3C//DTD SVG 1.1//EN" "http://www.w3.org/Graphics/SVG/1.1/DTD/svg11.dtd"><svg class="icon" width="200px" height="200.00px" viewBox="0 0 1024 1024" version="1.1" xmlns="http://www.w3.org/2000/svg"><path fill="#2c2c2c" d="M819.2 204.8H204.8c-56.6272 0-102.4 44.032-102.4 98.4576v381.3376c0 54.4256 45.7728 98.4576 102.4 98.4576h614.4c56.4224 0 102.4-44.032 102.4-98.4576V303.2576C921.6 248.832 875.6224 204.8 819.2 204.8z m47.7696 479.7952c0 25.2928-21.4016 45.8752-47.7696 45.8752H204.8c-26.368 0-47.7696-20.5824-47.7696-45.8752V303.2576c0-25.2416 21.4016-45.8752 47.7696-45.8752h614.4c26.368 0 47.7696 20.6336 47.7696 45.8752v381.3376z"  /><path fill="#2c2c2c" d="M510.464 577.9456l209.408-197.2736a25.6 25.6 0 0 1 35.1232 37.2736l-227.1744 213.9648a25.6 25.6 0 0 1-35.328-0.2048L270.0288 417.792a25.6 25.6 0 0 1 35.4816-36.864l205.0048 197.0688z"  /></svg>